<?xml version="1.0" standalone="no"?><!DOCTYPE svg PUBLIC "-//W3C//DTD SVG 1.1//EN" "http://www.w3.org/Graphics/SVG/1.1/DTD/svg11.dtd"><svg t="1711010321521" class="icon" viewBox="0 0 2033 1024" version="1.1" xmlns="http://www.w3.org/2000/svg" p-id="16289" xmlns:xlink="http://www.w3.org/1999/xlink" width="63.53125" height="32"><path d="M639.401869 163.489097c35.788162-60.11215 74.666667-103.376947 115.140187-127.800623C791.925234 11.264798 836.984424 0 891.41433 0c82.442368 0 150.928349 31.900312 205.358256 99.588785 52.934579 65.794393 80.94704 152.224299 80.94704 261.183801v636.909657H1012.834891v-603.115265c0-78.953271-13.956386-137.17134-41.968847-172.859813-28.012461-37.582555-74.666667-54.529595-136.872275-54.529595-46.654206 0-84.037383 20.635514-115.140186 62.006231-31.102804 41.370717-46.654206 99.588785-46.654206 170.965732v597.433022H507.314642v-601.121496c0-154.018692-56.024922-229.183801-164.884735-229.1838-52.934579 0-96.498442 24.423676-127.601247 73.271028-34.193146 46.953271-49.744548 105.17134-49.744548 172.859813v584.274143H0V26.317757h164.884735v107.065421C230.280374 43.165109 304.94704 0 385.794393 0c118.23053 0 203.76324 54.529595 253.607476 163.489097zM2006.928349 306.242991h-160.299066c-12.461059-52.635514-31.102804-88.323988-57.520249-108.959502-28.012461-22.529595-71.576324-33.794393-127.601246-33.794392-49.744548 0-87.127726 7.476636-112.049844 26.317757-29.607477 18.841121-43.563863 48.847352-43.563863 86.429906 0 33.794393 21.831776 62.006231 65.395639 86.429907 28.012461 15.05296 80.847352 33.794393 161.794392 58.218068 91.813084 26.317757 160.199377 58.218069 203.76324 92.11215 63.800623 48.847352 96.498442 116.535826 96.498442 202.866043 0 204.760125-119.825545 308.137072-357.781931 308.137072-220.909657 0-339.140187-114.641745-357.781932-340.037383h161.794393c9.370717 65.794393 29.607477 112.747664 57.520249 139.06542 28.012461 24.423676 71.576324 37.582555 133.781932 37.582555 127.601246 0 192.897196-45.05919 192.897196-131.489097 0-46.953271-24.922118-84.535826-71.576324-110.853582-24.922118-15.05296-79.352025-33.794393-161.794393-56.323988-94.903427-26.317757-161.794393-54.529595-199.17757-84.535825-62.205607-46.953271-93.308411-112.747664-93.308411-195.389408 0-88.323988 29.607477-157.806854 90.218069-206.654206 60.71028-50.741433 140.062305-75.165109 236.461059-75.165109 208.448598 0 323.588785 101.482866 342.230529 306.242991z" p-id="16290"></path></svg>