<?xml version="1.0" standalone="no"?><!DOCTYPE svg PUBLIC "-//W3C//DTD SVG 1.1//EN" "http://www.w3.org/Graphics/SVG/1.1/DTD/svg11.dtd"><svg t="1709983435981" class="icon" viewBox="0 0 1032 1024" version="1.1" xmlns="http://www.w3.org/2000/svg" p-id="9250" xmlns:xlink="http://www.w3.org/1999/xlink" width="32.25" height="32"><path d="M726.90583 615.661018l-77.570398-66.889147zM1024.054738 229.910256a228.683838 228.683838 0 0 1-68.465069 162.670203l-157.592232 155.140797L722.178064 482.583134l162.4951-159.868564a127.649707 127.649707 0 0 0 38.872751-92.804314 127.82481 127.82481 0 0 0-38.872751-92.979417 135.179114 135.179114 0 0 0-188.935575 0l-175.102479 172.30084-75.469169-64.612815a26.090269 26.090269 0 0 1 2.976742-3.151844l176.853504-175.10248a235.86304 235.86304 0 0 1 164.596331-66.36384h1.575922a234.46222 234.46222 0 0 1 164.596331 67.414455 227.633223 227.633223 0 0 1 68.289967 162.495101zM590.676101 752.065849a47.102567 47.102567 0 0 1-14.358403 30.467832l-177.378811 174.051864a234.987527 234.987527 0 0 1-164.596331 67.414455h-1.40082a235.337732 235.337732 0 0 1-164.596331-67.589557 227.633223 227.633223 0 0 1 0-325.165304l177.553915-175.10248 75.994476 65.313225L139.26191 701.28613l-1.751025 1.751025a130.101142 130.101142 0 0 0 1.751025 184.032706 135.004012 135.004012 0 0 0 94.555338 38.347443 133.252987 133.252987 0 0 0 94.380237-38.522545l177.203709-174.226967a50.254412 50.254412 0 0 1 24.164142-13.132686zM798.17254 739.633573a48.153182 48.153182 0 0 1-67.76466 5.077972l-98.582696-84.7496-167.573073-143.934238-63.036892-53.056051-81.947961-70.040992-92.804314-79.84673-14.708608-12.782481a48.153182 48.153182 0 0 1-5.077972-68.46507 47.627874 47.627874 0 0 1 36.421316-16.634735 48.153182 48.153182 0 0 1 31.168241 11.556763l152.339157 130.801552 169.4992 145.510161 52.530744 45.351542 77.570399 66.889147L792.219055 672.569324a48.153182 48.153182 0 0 1 5.953485 67.064249z" p-id="9251" fill="#d81e06"></path></svg>